<svg width="224" height="162" viewBox="0 0 224 162" fill="none" xmlns="http://www.w3.org/2000/svg">
<path d="M0 132.426C79.555 136.934 122.974 99.923 186.722 62.573C197.435 56.296 211.962 52.64 223.494 58.411C223.602 53.474 216.733 48.052 212.752 46.145C206.267 43.038 197.891 42.481 195.739 41.561C194.606 41.077 193.164 39.453 192.052 38.023C190.933 36.585 189.1 35.91 187.314 36.272C180.055 37.742 160.982 40.768 145.119 35.961C146.782 40.181 156.035 43.5 159.801 42.853C154.721 46.639 150.733 50.908 150.733 50.908C150.733 50.908 135.494 35.739 87.718 37.093C45.265 38.296 20.528 18.972 19.694 0C10.673 21.775 16.534 49.934 55.126 58.876C93.718 67.818 126.91 47.869 146.265 63.055C140.861 66.87 137.573 69.384 133.216 72.966C128.291 76.155 74.832 119.547 0 132.426Z" fill="white"/>
<path d="M140.548 64.113C128.013 59.076 95.538 67.905 76.714 69.326C47.26 71.551 26.558 62.145 22.547 51.351C23.651 77.678 47.125 84.587 77.882 80.043C105.627 75.944 125.333 63.805 140.548 64.113Z" fill="white"/>
<path d="M125.396 74.056C121.396 73.389 104.996 83.256 74.683 88.726C61.149 91.168 45.799 89.009 36.879 86.036C40.136 96.655 54.217 102.427 70.709 100.167C88.063 97.789 112.196 82.589 125.396 74.056Z" fill="white"/>
<path d="M68.692 161.603H91.435V124.591C84.084 127.397 76.544 129.855 68.692 131.909V161.603Z" fill="white"/>
<path d="M106.872 161.603H129.614V106.628C122.046 110.754 114.515 114.601 106.872 118.099V161.603Z" fill="white"/>
<path d="M30.439 161.603H53.182V135.317C45.928 136.637 38.374 137.618 30.439 138.224V161.603Z" fill="white"/>
<path d="M145.053 161.603H167.796V84.415C159.995 89.084 152.457 93.602 145.053 97.907V161.603Z" fill="white"/>
<path d="M183.233 75.228V161.603H205.975V66.416C199.162 67.255 192.405 69.846 186.722 73.176C185.551 73.863 184.39 74.546 183.233 75.228Z" fill="white"/>
<path d="M68.692 161.603H91.435V124.591C84.084 127.397 76.544 129.855 68.692 131.909V161.603Z" fill="white"/>
<path d="M106.872 161.603H129.614V106.628C122.046 110.754 114.515 114.601 106.872 118.099V161.603Z" fill="white"/>
<path d="M30.439 161.603H53.182V135.317C45.928 136.637 38.374 137.618 30.439 138.224V161.603Z" fill="white"/>
<path d="M144.633 161.989H167.376V84.801C159.575 89.47 152.037 93.988 144.633 98.293V161.989Z" fill="white"/>
<path d="M183.233 75.228V161.603H205.975V66.416C199.162 67.255 192.405 69.846 186.722 73.176C185.551 73.863 184.39 74.546 183.233 75.228Z" fill="white"/>
</svg>
